<?xml version="1.0" standalone="no"?>
<!DOCTYPE svg PUBLIC "-//W3C//DTD SVG 20010904//EN"
 "http://www.w3.org/TR/2001/REC-SVG-20010904/DTD/svg10.dtd">
<svg version="1.0" xmlns="http://www.w3.org/2000/svg"
 width="2566.000000pt" height="2566.000000pt" viewBox="0 0 2566.000000 2566.000000"
 preserveAspectRatio="xMidYMid meet">
<metadata>
Created by potrace 1.11, written by Peter Selinger 2001-2013
</metadata>
<g transform="translate(0.000000,2566.000000) scale(0.100000,-0.100000)"
fill="#000000" stroke="none">
<path d="M0 12830 l0 -12830 12830 0 12830 0 0 12830 0 12830 -12830 0 -12830
0 0 -12830z m5925 3595 c545 -74 1062 -291 1460 -612 130 -105 302 -283 343
-354 63 -112 75 -228 36 -365 -47 -166 -204 -274 -399 -274 -146 0 -223 38
-370 180 -237 228 -453 359 -761 460 -467 152 -988 145 -1421 -22 -673 -259
-1169 -862 -1283 -1565 -31 -193 -27 -501 10 -693 106 -557 481 -1031 1025
-1295 295 -144 591 -208 955 -206 569 1 1036 188 1437 574 270 260 447 571
533 935 11 45 20 86 20 91 0 4 -453 11 -1006 15 -553 4 -1031 11 -1062 16
-148 24 -256 99 -307 212 -38 82 -47 223 -20 314 40 141 145 239 294 274 44
10 305 11 1310 6 691 -4 1290 -12 1333 -16 188 -22 310 -126 347 -298 23 -109
5 -423 -38 -657 -173 -935 -806 -1732 -1675 -2110 -381 -165 -733 -236 -1176
-236 -624 0 -1201 171 -1696 502 -401 268 -689 597 -904 1034 -200 405 -280
756 -280 1220 0 487 99 897 315 1313 423 812 1191 1380 2076 1537 260 47 647
55 904 20z m14520 -110 c346 -47 639 -137 950 -290 287 -141 516 -305 720
-516 185 -192 227 -321 169 -525 -67 -238 -371 -348 -617 -223 -20 11 -92 72
-160 136 -142 136 -240 211 -375 287 -472 267 -1070 346 -1597 209 -556 -144
-1040 -539 -1301 -1064 -159 -319 -221 -632 -202 -1017 21 -425 185 -807 476
-1114 367 -385 829 -595 1382 -627 621 -36 1152 155 1582 568 274 262 450 571
538 939 11 46 20 88 20 93 0 5 -213 9 -527 10 -291 1 -760 4 -1043 8 -500 7
-517 8 -579 30 -114 40 -183 99 -228 196 -36 78 -44 221 -18 311 39 137 138
233 280 270 57 16 730 17 1970 5 712 -7 721 -7 785 -30 119 -41 193 -111 232
-218 53 -144 24 -561 -62 -903 -164 -650 -570 -1245 -1110 -1627 -423 -299
-887 -473 -1395 -523 -255 -26 -637 -8 -890 40 -626 119 -1219 441 -1602 870
-382 426 -627 978 -682 1534 -14 138 -14 467 -1 594 39 369 136 694 307 1022
419 808 1190 1379 2074 1535 260 47 649 55 904 20z m-9491 -5 c141 -21 257
-103 311 -222 49 -107 1718 -4786 1732 -4856 50 -245 -119 -476 -377 -514
-185 -28 -355 54 -433 209 -21 40 -141 379 -413 1169 l-35 101 -451 6 c-248 4
-650 7 -893 7 l-442 0 -213 -587 c-118 -324 -227 -617 -244 -652 -72 -151
-208 -231 -392 -231 -180 0 -360 112 -414 258 -28 73 -35 159 -21 232 7 34 87
260 177 503 91 243 490 1311 886 2372 396 1062 732 1955 746 1985 81 172 254
252 476 220z m4326 -80 c259 -33 494 -115 710 -249 448 -279 749 -732 815
-1228 78 -581 -148 -1141 -595 -1475 -116 -86 -313 -189 -448 -233 -68 -22
-82 -30 -77 -44 3 -9 207 -382 453 -830 246 -448 459 -844 474 -880 58 -142
59 -262 4 -375 -49 -101 -168 -194 -289 -226 -67 -18 -207 -8 -281 20 -45 17
-76 39 -130 94 -70 70 -80 87 -598 1036 l-526 965 -39 7 c-21 4 -126 7 -234 7
l-196 1 -7 -872 c-7 -947 -7 -947 -63 -1050 -48 -87 -139 -155 -248 -184 -67
-18 -209 -18 -272 1 -113 34 -212 117 -258 218 -43 93 -46 155 -41 711 6 584
13 1502 21 2691 7 1167 15 1549 30 1609 36 138 148 249 295 293 36 10 177 12
730 8 390 -3 722 -9 770 -15z"/>
<path d="M10846 14583 c-9 -26 -146 -394 -305 -818 l-288 -770 595 -7 c328 -4
598 -6 600 -4 2 2 -75 224 -172 492 -96 269 -227 638 -291 819 -64 182 -118
331 -120 333 -2 2 -10 -18 -19 -45z"/>
<path d="M14337 14538 c-4 -457 -5 -833 -3 -835 2 -3 199 -5 438 -6 422 -2
435 -1 513 21 250 70 459 241 573 467 75 151 100 332 68 495 -34 170 -149 353
-299 480 -79 66 -237 150 -332 175 -65 18 -402 33 -756 34 l-196 1 -6 -832z"/>
</g>
</svg>
