<?xml version="1.0" standalone="no"?>
<!DOCTYPE svg PUBLIC "-//W3C//DTD SVG 20010904//EN"
 "http://www.w3.org/TR/2001/REC-SVG-20010904/DTD/svg10.dtd">
<svg version="1.0" xmlns="http://www.w3.org/2000/svg"
 width="1108.000000pt" height="1108.000000pt" viewBox="0 0 1108.000000 1108.000000"
 preserveAspectRatio="xMidYMid meet">
<metadata>
Created by potrace 1.11, written by Peter Selinger 2001-2013
</metadata>
<g transform="translate(0.000000,1108.000000) scale(0.100000,-0.100000)"
fill="#000000" stroke="none">
<path d="M0 5540 l0 -5540 5540 0 5540 0 0 5540 0 5540 -5540 0 -5540 0 0
-5540z m8135 3165 c999 -103 1861 -736 2274 -1667 256 -576 298 -1271 114
-1877 -116 -387 -331 -754 -608 -1040 -397 -411 -947 -691 -1551 -790 -599
-99 -1200 -17 -1719 234 -821 397 -1386 1162 -1529 2070 -19 125 -38 450 -30
519 14 115 42 182 104 244 53 53 130 89 217 102 94 13 2468 -6 2543 -21 207
-42 337 -219 317 -433 -18 -195 -150 -325 -350 -345 -34 -3 -489 -3 -1011 1
-522 4 -952 6 -954 3 -9 -9 22 -143 60 -260 157 -486 514 -887 991 -1115 346
-166 745 -225 1157 -171 505 67 930 296 1244 671 377 449 487 1109 285 1714
-171 515 -571 950 -1071 1167 -238 104 -438 147 -713 156 -402 13 -763 -73
-1096 -260 -113 -63 -217 -143 -333 -254 -130 -125 -210 -165 -337 -171 -97
-5 -154 6 -232 45 -105 52 -182 170 -195 300 -17 164 22 259 171 411 423 432
1032 709 1692 771 146 13 409 12 560 -4z m-5119 -239 c73 -23 169 -90 214
-150 36 -48 139 -281 1218 -2766 99 -228 264 -608 367 -845 303 -694 288 -656
293 -762 5 -111 -13 -179 -73 -267 -80 -120 -193 -184 -340 -193 -140 -9 -251
29 -350 118 -44 41 -67 75 -120 181 -36 71 -84 155 -107 185 -134 182 -333
304 -566 349 -107 20 -138 18 -332 -24 -166 -37 -190 -45 -470 -167 -162 -70
-443 -192 -625 -270 -181 -79 -436 -189 -565 -245 -129 -55 -260 -108 -290
-116 -64 -17 -368 -20 -449 -4 -232 44 -394 296 -340 530 5 24 51 139 101 255
49 115 289 674 533 1240 243 567 493 1147 555 1290 61 143 220 512 352 820
132 308 254 587 270 619 60 118 186 212 318 235 83 15 344 6 406 -13z"/>
<path d="M2709 6616 c-118 -34 -225 -117 -276 -213 -28 -52 -270 -674 -329
-846 -34 -98 -39 -170 -20 -246 36 -142 134 -261 253 -310 76 -31 194 -39 284
-17 66 15 476 188 601 253 129 67 220 198 241 349 10 66 9 82 -10 147 -37 124
-240 637 -276 696 -41 67 -132 140 -214 171 -71 28 -189 35 -254 16z"/>
</g>
</svg>
